Coordinates
version=1
nRows=14
nColumns=40
inDegrees=yes

Units are S.I. units (second, meters, Newtons, ...)
Angles are in degrees.

endheader
time	pelvis_tilt	pelvis_list	pelvis_rotation	pelvis_tx	pelvis_ty	pelvis_tz	hip_flexion_r	hip_adduction_r	hip_rotation_r	knee_angle_r	knee_angle_r_beta	ankle_angle_r	subtalar_angle_r	mtp_angle_r	hip_flexion_l	hip_adduction_l	hip_rotation_l	knee_angle_l	knee_angle_l_beta	ankle_angle_l	subtalar_angle_l	mtp_angle_l	lumbar_extension	lumbar_bending	lumbar_rotation	arm_flex_r	arm_add_r	arm_rot_r	elbow_flex_r	pro_sup_r	wrist_flex_r	wrist_dev_r	arm_flex_l	arm_add_l	arm_rot_l	elbow_flex_l	pro_sup_l	wrist_flex_l	wrist_dev_l
     23.91000000	     -2.88868576	     -5.88959522	      2.84311360	      1.12761068	      0.93240628	      0.48523851	     11.11216200	      4.25597466	    -18.18811239	     15.74380023	     15.74380023	      9.39709528	     -0.82870196	     -3.67471750	     28.61587219	    -14.23064047	     -2.30699065	     63.03841548	     63.03841548	     13.15434392	    -19.03837107	     15.86842182	     -9.96927911	      7.81613678	      4.78435080	     21.34501329	    -16.90558556	    -12.14494292	     30.82958129	     46.05611442	      0.00000000	      0.00000000	      8.68980287	     -6.40984996	      0.68398143	     44.71066420	     46.26142417	      0.00000000	      0.00000000
     23.92150000	     -2.97360582	     -5.84670699	      3.22566087	      1.12566326	      0.93253296	      0.48533520	     10.37192073	      4.36641139	    -18.18928384	     15.16703667	     15.16703667	      9.55646329	     -1.06961683	     -4.01821671	     30.16013845	    -13.96940413	     -2.17594684	     61.21975553	     61.21975553	     12.96614223	    -19.01992731	     15.88456410	     -9.93968013	      7.71661625	      4.53477757	     23.88252646	    -17.05465199	    -11.78682208	     31.71438476	     46.02706680	      0.00000000	      0.00000000	      8.09171209	     -6.19754868	      0.96652333	     40.36982526	     46.21276076	      0.00000000	      0.00000000
     23.93300000	     -2.95617894	     -5.84879278	      3.61664206	      1.12382735	      0.93271892	      0.48543170	      9.44254327	      4.55601980	    -18.24134906	     14.43586014	     14.43586014	      9.74562787	     -1.12803981	     -4.15761156	     31.39755358	    -13.71483480	     -2.05519635	     59.10700184	     59.10700184	     12.63754497	    -18.97228010	     15.89926883	    -10.09137455	      7.66744830	      4.08527205	     26.37460406	    -17.06699371	    -11.52771623	     33.26475004	     45.97008827	      0.00000000	      0.00000000	      6.97713903	     -6.16323003	      1.18981038	     37.33567880	     46.16773143	      0.00000000	      0.00000000
     23.94450000	     -2.99898858	     -5.79504322	      3.96612497	      1.12201244	      0.93277723	      0.48544248	      8.58445712	      4.68250189	    -18.26576534	     13.69380825	     13.69380825	      9.79132613	     -1.26003428	     -4.71463806	     32.43925377	    -13.32781648	     -1.98724022	     56.63188460	     56.63188460	     12.09509401	    -18.93290290	     15.55400668	    -10.11544306	      7.55634157	      4.34705432	     28.25187252	    -17.62992879	    -10.60045994	     34.77553328	     45.87631725	      0.00000000	      0.00000000	      7.15752621	     -5.69333959	      1.35129131	     31.80006820	     46.15797298	      0.00000000	      0.00000000
     23.95600000	     -2.98363091	     -5.79067576	      4.32870499	      1.12024767	      0.93279605	      0.48538301	      7.64857455	      4.86200574	    -18.36188526	     12.92679660	     12.92679660	      9.99851563	     -1.18333775	     -4.81047363	     33.29845706	    -12.92263491	     -1.83688900	     53.96199917	     53.96199917	     11.64927441	    -18.81631522	     15.70730302	    -10.30063757	      7.51333552	      3.94906621	     30.54249101	    -17.62633493	    -10.35796354	     36.49749230	     45.81260376	      0.00000000	      0.00000000	      5.93327417	     -5.73587607	      1.42634346	     29.56729687	     46.13241153	      0.00000000	      0.00000000
     23.96750000	     -3.05967770	     -5.75424050	      4.67074430	      1.11845874	      0.93259347	      0.48521411	      6.82325991	      4.97913758	    -18.55521049	     12.17276082	     12.17276082	     10.06500515	     -1.04269368	     -5.41391392	     34.04660562	    -12.43940299	     -1.73128700	     50.94699499	     50.94699499	     10.80807786	    -18.66850669	     14.89843850	    -10.32608102	      7.41503538	      4.22705772	     32.09814837	    -18.28422553	     -9.29224220	     38.67583738	     45.68911865	      0.00000000	      0.00000000	      5.93818181	     -5.37866066	      1.36561352	     25.11654044	     46.16991858	      0.00000000	      0.00000000
     23.97900000	     -3.16930026	     -5.68690506	      4.96370622	      1.11669786	      0.93230079	      0.48499167	      6.04767266	      5.06613385	    -18.61644728	     11.45772595	     11.45772595	     10.31992463	     -0.88653146	     -5.45522533	     34.69461868	    -11.86973644	     -1.58583826	     47.74496995	     47.74496995	     10.27534762	    -18.36506389	     15.15954997	    -10.37740227	      7.26288332	      4.05308943	     34.06689194	    -18.38622618	     -9.21616217	     40.17315183	     45.64221222	      0.00000000	      0.00000000	      4.58467798	     -5.53795566	      1.34639462	     23.90336595	     46.15454516	      0.00000000	      0.00000000
     23.99050000	     -3.26399361	     -5.72159707	      5.30168727	      1.11503355	      0.93185163	      0.48461108	      5.18627305	      5.26432868	    -18.87731245	     10.60599371	     10.60599371	     10.54407791	     -0.49118495	     -5.59995242	     35.23995729	    -11.35609634	     -1.33742979	     44.36044088	     44.36044088	      9.65067120	    -17.82535014	     14.94711446	    -10.42186057	      7.26922820	      3.64563449	     36.01072021	    -18.28705970	     -8.97753907	     42.16952058	     45.56807304	      0.00000000	      0.00000000	      3.25534343	     -5.69831515	      1.33964572	     22.32638859	     46.14347689	      0.00000000	      0.00000000
     24.00200000	     -3.42602257	     -5.80403408	      5.57923529	      1.11345707	      0.93108707	      0.48423731	      4.41800371	      5.47345959	    -19.32166397	      9.80037214	      9.80037214	     10.64091519	      0.26756030	     -6.36893928	     35.58880355	    -10.96679101	     -1.26410028	     40.52551660	     40.52551660	      7.86440523	    -17.13416500	     11.25013922	    -10.41203504	      7.28909112	      4.03379036	     36.55998404	    -19.35604873	     -7.56734412	     46.61573287	     45.35657767	      0.00000000	      0.00000000	      2.71822829	     -5.57897578	      0.89140070	     19.88033790	     46.28063739	      0.00000000	      0.00000000
     24.01350000	     -3.61156888	     -5.87237408	      5.84010553	      1.11197313	      0.93025364	      0.48378054	      3.67179051	      5.69037575	    -19.58079835	      9.00473464	      9.00473464	     10.89496713	      0.78959436	     -6.52057990	     35.90290814	    -10.54281538	     -1.17188936	     36.71555059	     36.71555059	      6.99438094	    -15.89717984	      9.84865677	    -10.36823920	      7.30157294	      3.89702731	     37.87467688	    -19.56225679	     -7.25656735	     49.54003675	     45.27192767	      0.00000000	      0.00000000	      1.22908970	     -5.78489952	      0.36321479	     19.41744466	     46.38736184	      0.00000000	      0.00000000
     24.02500000	     -3.89250835	     -5.89044060	      6.04091969	      1.11053945	      0.92923545	      0.48327492	      3.10603283	      5.82216519	    -19.66933162	      8.38566073	      8.38566073	     11.20889216	      1.06654632	     -6.58711609	     36.22589323	    -10.10754290	     -1.21854296	     32.95561570	     32.95561570	      6.85239813	    -14.05102651	     10.10369256	    -10.15030374	      7.22471414	      3.81258802	     39.52686896	    -19.58318259	     -7.30689757	     51.00825178	     45.23332099	      0.00000000	      0.00000000	     -0.17953769	     -6.02470025	      0.28960007	     18.86509019	     46.37608712	      0.00000000	      0.00000000
     24.03650000	     -4.09256794	     -5.96273571	      6.24154685	      1.10936814	      0.92819574	      0.48271124	      2.38057062	      6.03536903	    -19.87081193	      7.65014819	      7.65014819	     11.50687385	      1.57109813	     -6.66771725	     36.35049523	     -9.77665336	     -1.39530161	     29.20789417	     29.20789417	      6.71643391	    -11.90415406	     10.16362786	    -10.03340615	      7.23970095	      3.48171092	     41.05048280	    -19.34671587	     -7.28113751	     53.14564819	     45.16692422	      0.00000000	      0.00000000	     -1.78465395	     -6.30998153	      0.17388571	     18.48552590	     46.36666464	      0.00000000	      0.00000000
     24.04800000	     -4.21573405	     -6.17491228	      6.44107235	      1.10852904	      0.92691594	      0.48203287	      1.54337117	      6.38032969	    -20.41852020	      6.89386315	      6.89386315	     11.85234021	      2.72210635	     -6.77648648	     36.38558276	     -9.64421643	     -1.74337404	     25.68434005	     25.68434005	      6.23395461	     -9.57804136	      8.72595369	    -10.09111412	      7.43871660	      3.50773440	     41.25277719	    -19.81890860	     -6.98132353	     58.72187092	     44.98453270	      0.00000000	      0.00000000	     -3.82920124	     -6.65271826	     -0.35889379	     19.93746960	     46.41413510	      0.00000000	      0.00000000
     24.05950000	     -4.37963284	     -6.24927146	      6.57363844	      1.10776818	      0.92560585	      0.48128351	      0.84929874	      6.56742060	    -20.43982208	      6.36636428	      6.36636428	     12.21920871	      3.00445428	     -6.81761655	     36.34278181	     -9.35288627	     -2.13407644	     22.39846357	     22.39846357	      6.22576802	     -7.50421517	      9.01009731	     -9.95956285	      7.45554651	      3.23291954	     42.57259080	    -19.56459905	     -7.00596940	     60.94112449	     44.92360211	      0.00000000	      0.00000000	     -5.40383024	     -6.90784789	     -0.44663817	     19.67736056	     46.39431337	      0.00000000	      0.00000000
